<?xml version="1.0" encoding="UTF-8"?>
<svg version="1.1" xmlns="http://www.w3.org/2000/svg" width="2048" height="2732">
<path d="M0 0 C2.97929861 0.00315065 5.95759145 -0.020355 8.93676758 -0.0456543 C42.16294448 -0.15572194 73.10066127 8.64272996 102.3137207 24.31567383 C102.96646973 24.65679199 103.61921875 24.99791016 104.29174805 25.34936523 C115.11023895 31.01317893 124.75088788 37.74039989 134.3137207 45.31567383 C135.31274414 46.10071289 136.31176758 46.88575195 137.34106445 47.69458008 C144.28305512 53.26211635 150.84097969 59.21566088 157.3137207 65.31567383 C158.0459082 66.00532227 158.7780957 66.6949707 159.5324707 67.40551758 C164.0794516 71.81717167 168.05466191 76.57582554 172.0168457 81.51489258 C174.2673727 84.25915764 176.60498964 86.88581406 179.0012207 89.50317383 C181.56153417 92.3102645 183.97004859 95.10741888 186.1887207 98.19067383 C198.58200885 115.1247535 216.8912763 133.47061971 238.3137207 137.31567383 C247.1247561 137.81641027 255.12362936 137.98709408 263.3137207 134.31567383 C263.9737207 133.65567383 264.6337207 132.99567383 265.3137207 132.31567383 C268.3137207 132.06567383 268.3137207 132.06567383 271.3137207 132.31567383 C273.3137207 134.31567383 273.3137207 134.31567383 273.63793945 137.15942383 C273.06242629 142.76200985 269.49568848 145.81084626 265.3137207 149.31567383 C259.4988097 152.79575399 253.73510117 155.10363473 247.0925293 156.39013672 C246.19633881 156.56501114 245.30014832 156.73988556 244.37680054 156.9200592 C243.69598419 157.05061203 243.01516785 157.18116486 242.3137207 157.31567383 C242.3146425 157.96597061 242.31556429 158.6162674 242.31651402 159.28627014 C242.34791475 181.96151379 242.36362469 204.63675911 242.37468624 227.31202078 C242.37621262 230.29984771 242.37793444 233.28767446 242.37970734 236.27550125 C242.41789858 302.27765461 242.27286889 368.27837448 242.05201786 434.28009816 C242.01714719 444.7232772 241.98358026 455.16646032 241.95010104 465.60964389 C241.92311531 474.01775539 241.89589314 482.42586612 241.86864762 490.83397678 C241.86181286 492.94347698 241.85498421 495.05297721 241.84816165 497.16247746 C241.76587187 522.59136605 241.67789122 548.02021875 241.57789167 573.44904422 C241.50989269 590.76288269 241.44892428 608.07673463 241.39467698 625.39062172 C241.36152923 635.87996822 241.32225221 646.3692543 241.27477446 656.85854591 C241.24319481 663.95363339 241.21894027 671.04872167 241.20054189 678.1438555 C241.18975861 682.21391752 241.17568966 686.2838976 241.15268624 690.35391045 C241.13173452 694.07131183 241.12017163 697.78862126 241.11599096 701.50607825 C241.11135927 703.47650939 241.09675117 705.44690938 241.08173114 707.41728872 C241.0733593 718.64764095 241.0733593 718.64764095 244.8762207 729.06567383 C247.22381349 731.23268255 249.17515004 732.33116684 252.0012207 733.75317383 C256.18208911 735.90529297 256.18208911 735.90529297 257.3762207 739.62817383 C257.3555957 740.51504883 257.3349707 741.40192383 257.3137207 742.31567383 C254.2585766 744.83380923 251.31645095 746.22443919 247.6262207 747.62817383 C238.59424457 751.35877267 232.31260838 756.00818832 225.6262207 763.06567383 C224.82390015 763.90569946 224.82390015 763.90569946 224.00537109 764.76269531 C215.68240047 773.8580994 211.27587647 784.69419092 206.8137207 796.00317383 C206.26632866 797.37262851 205.71815459 798.74177086 205.16918945 800.1105957 C202.99954478 805.52968142 200.84897893 810.95620976 198.70996094 816.38745117 C196.14198416 822.88837975 193.56273499 829.33948145 190.3762207 835.56567383 C189.87155273 836.55978271 189.87155273 836.55978271 189.35668945 837.57397461 C184.36175556 847.261048 178.44051905 856.06359153 171.3137207 864.31567383 C170.64856445 865.08911133 169.9834082 865.86254883 169.2980957 866.65942383 C161.56318051 875.02459137 150.17314925 882.79171193 138.5637207 883.56567383 C135.3137207 883.31567383 135.3137207 883.31567383 133.3137207 881.31567383 C133.1887207 878.96020508 133.1887207 878.96020508 134.3137207 876.31567383 C136.79731072 874.50892512 139.53615406 873.29509243 142.3137207 872.00317383 C154.05546736 866.12743244 161.18617378 859.13679198 168.23168945 848.01147461 C169.25022633 846.41518464 170.31195074 844.84668758 171.3762207 843.28051758 C181.81070392 826.83397861 186.18364064 806.47679235 188.3137207 787.31567383 C188.39955071 786.58487357 188.48538071 785.85407332 188.57381163 785.10112761 C189.26478025 778.8378994 189.45849446 772.66401998 189.45073509 766.36623859 C189.45471283 764.77282152 189.45471283 764.77282152 189.45877093 763.1472142 C189.46642012 759.59368328 189.46702142 756.04018715 189.46762085 752.48664856 C189.47163832 749.9107075 189.47607701 747.33476707 189.48090041 744.75882739 C189.49193464 738.42569402 189.49761426 732.09256619 189.50160928 725.75942491 C189.50663327 718.17063833 189.51736279 710.58186238 189.52809102 702.99308211 C189.55488886 683.78522254 189.56996751 664.57735794 189.58343214 645.36948517 C189.58710469 640.165793 189.59110735 634.96210112 189.5951848 629.75840926 C189.62044275 597.43957555 189.64248381 565.12074131 189.65491295 532.80189991 C189.6578341 525.32008169 189.66080167 517.83826349 189.66381836 510.35644531 C189.66418927 509.42695888 189.66456018 508.49747244 189.66494233 507.53981975 C189.67710018 477.39783745 189.70805171 447.25591351 189.74973988 417.11395862 C189.79254133 386.1104442 189.81915545 355.10696061 189.82438766 324.10341584 C189.82512808 319.72334437 189.82603875 315.34327294 189.82704544 310.96320152 C189.82723606 310.10120882 189.82742667 309.23921612 189.82762306 308.35110243 C189.83113372 294.49076905 189.8514175 280.63050896 189.87784208 266.77020248 C189.90400727 252.8357615 189.91170534 238.90140503 189.90074079 224.966943 C189.89477206 216.69378664 189.90263312 208.42091733 189.93057162 200.14780451 C189.94990843 193.9629943 189.94297295 187.77847078 189.92600246 181.59365948 C189.92320083 179.09706728 189.92880983 176.60044802 189.9438154 174.10389934 C190.01825068 160.91006764 189.76785248 149.49750581 184.3137207 137.31567383 C183.95093848 136.47659369 183.58815625 135.63751355 183.21438062 134.77300674 C182.3552439 132.84822925 181.42479547 130.99064667 180.4387207 129.12817383 C179.92293457 128.13140625 179.92293457 128.13140625 179.39672852 127.11450195 C178.38330064 125.17357742 177.35163182 123.24359115 176.3137207 121.31567383 C175.76973633 120.28829102 175.22575195 119.2609082 174.6652832 118.20239258 C167.09564699 104.55858487 157.12601569 92.49397034 146.3137207 81.31567383 C145.61061768 80.57389893 145.61061768 80.57389893 144.89331055 79.81713867 C110.77635072 43.85289845 61.34063136 19.485007 11.5715332 18.03051758 C-46.67926392 16.87924363 -95.65360567 39.76944005 -137.6862793 79.31567383 C-138.74975586 80.29793945 -138.74975586 80.29793945 -139.8347168 81.30004883 C-154.94593013 95.73279952 -166.37882754 114.25306842 -175.5612793 132.87817383 C-176.11557617 133.99321289 -176.66987305 135.10825195 -177.2409668 136.25708008 C-182.3426068 149.08765902 -180.99216812 164.07860407 -181.00271606 177.5965271 C-181.0118585 180.07910497 -181.02186017 182.5616798 -181.0326432 185.04425108 C-181.05407943 190.43269401 -181.06946474 195.82110303 -181.07944107 201.20957565 C-181.094323 209.23085471 -181.12051672 217.25206964 -181.14893258 225.27331076 C-181.19656394 238.81179088 -181.23499114 252.35028265 -181.26813126 265.88880539 C-181.30121805 279.39810039 -181.33824195 292.90737519 -181.3803978 306.41664505 C-181.38303301 307.26214138 -181.38566823 308.10763771 -181.38838329 308.97875515 C-181.39910261 312.41381425 -181.409851 315.84887325 -181.42063708 319.28393214 C-181.51917724 350.66705021 -181.60836342 382.05018763 -181.69165039 413.43334961 C-181.76684331 441.76345494 -181.84663703 470.09354047 -181.93339418 498.42361285 C-181.94164779 501.1199992 -181.9498807 503.81638562 -181.95810655 506.51277205 C-182.00439303 521.68450373 -182.05078039 536.8562351 -182.09768541 552.02796488 C-182.1331023 563.48765614 -182.16806784 574.94734869 -182.20233154 586.40704346 C-182.20621771 587.70618917 -182.20621771 587.70618917 -182.21018238 589.03158026 C-182.28741117 614.9237872 -182.34851969 640.81599449 -182.39734658 666.70826987 C-182.4053271 670.91565554 -182.41352763 675.12304077 -182.4217484 679.33042598 C-182.4241709 680.57048595 -182.4241709 680.57048595 -182.42664233 681.83559763 C-182.43955727 688.43533435 -182.45259489 695.03507082 -182.46574211 701.63480708 C-182.4738026 705.68419451 -182.4817671 709.73358208 -182.48951179 713.78297013 C-182.56284807 752.00786267 -182.71353796 790.22892133 -183.10228715 828.45219641 C-183.17630034 835.79704884 -183.23962698 843.14191899 -183.29427147 850.48694038 C-183.30163682 851.47324142 -183.30900217 852.45954246 -183.31659072 853.47573141 C-183.34504889 857.32752174 -183.37307524 861.17931375 -183.39946143 865.03111888 C-183.47142253 875.53275498 -183.57770084 886.0321122 -183.76031813 896.5324367 C-183.8647087 902.6998819 -183.92433452 908.86663071 -183.94583133 915.03492144 C-183.95924808 918.43378714 -183.99993666 921.82578558 -184.08737516 925.22396517 C-184.50867311 941.95734347 -182.33771127 952.3547804 -171.37788224 965.26914668 C-168.55090826 968.6892631 -166.07932324 972.3534506 -163.5612793 976.00317383 C-162.57086267 977.40416699 -161.57889561 978.80406664 -160.5847168 980.20239258 C-157.74800473 984.21490949 -154.96158529 988.26052997 -152.1862793 992.31567383 C-147.96776232 998.4767797 -143.68719249 1004.59091517 -139.37329102 1010.68554688 C-133.70452938 1018.6955959 -128.08298984 1026.73850046 -122.4597168 1034.78051758 C-120.72394297 1037.26183303 -118.98665416 1039.74207956 -117.2487793 1042.22192383 C-110.36340982 1052.0482261 -103.50065685 1061.88995018 -96.65209961 1071.74194336 C-90.01860496 1081.28179997 -83.35497127 1090.80040305 -76.6862793 1100.31567383 C-65.24028002 1116.64747966 -53.83862767 1133.00974858 -42.4675293 1149.39379883 C-41.77127441 1150.39628662 -41.07501953 1151.39877441 -40.35766602 1152.43164062 C-39.05121231 1154.31276563 -37.74547487 1156.19438844 -36.44067383 1158.07666016 C-32.81200274 1163.30015577 -29.14201325 1168.49222066 -25.44165039 1173.66503906 C-24.98235641 1174.30755363 -24.52306244 1174.95006821 -24.04985046 1175.61205292 C-22.92890018 1177.18009822 -21.8076236 1178.74791026 -20.6862793 1180.31567383 C-20.66988581 1097.3593532 -20.67075048 1014.40307094 -20.74633789 931.44677734 C-20.74713036 930.57575553 -20.74792282 929.70473371 -20.74873931 928.80731729 C-20.81010322 861.55408796 -20.88782178 794.30087209 -20.97006791 727.04766538 C-20.98131862 717.84443974 -20.99250276 708.64121403 -21.00366211 699.43798828 C-21.0055121 697.91425658 -21.0055121 697.91425658 -21.00739946 696.35974243 C-21.04782008 663.0270186 -21.08117107 629.69429212 -21.1109662 596.36155724 C-21.14197087 561.71242799 -21.17940675 527.06331176 -21.22518542 492.41419872 C-21.23163195 487.53369519 -21.23800806 482.65319158 -21.2443428 477.77268791 C-21.24559111 476.81300125 -21.24683941 475.85331459 -21.24812554 474.86454652 C-21.26792894 459.49973173 -21.28103403 444.13491839 -21.29157257 428.77009475 C-21.30224767 413.4240916 -21.32013969 398.07811034 -21.34544633 382.73212422 C-21.36022334 373.64045 -21.3695071 364.54880928 -21.37084613 355.45712294 C-21.37228644 349.38483427 -21.38095533 343.31258335 -21.39543522 337.24031185 C-21.40346765 333.78647784 -21.40843907 330.33271789 -21.40455811 326.87887497 C-19.93320381 300.50178265 -19.93320381 300.50178265 -29.6862793 277.31567383 C-33.76117628 275.90679987 -37.56385045 275.2904619 -41.8269043 274.80786133 C-50.10528442 273.75211649 -55.79619921 269.20575392 -61.5612793 263.44067383 C-63.21351825 260.31977802 -63.00704588 257.77995287 -62.6862793 254.31567383 C-60.6862793 252.31567383 -60.6862793 252.31567383 -58.5612793 251.87817383 C-54.89938901 252.435418 -52.65984355 254.03305788 -49.65112305 256.12426758 C-44.85224157 259.03412612 -39.52008785 258.95893099 -34.1394043 257.73754883 C-24.78762346 254.83162823 -17.44386815 249.14195359 -12.6862793 240.50317383 C-10.20585953 234.79554125 -7.35453595 227.41930158 -9.3581543 221.24536133 C-10.50696013 219.2082032 -10.50696013 219.2082032 -12.6862793 216.31567383 C-15.75237516 210.89890448 -15.93976086 207.49464824 -14.48706055 201.61254883 C-13.11927757 197.68934693 -10.98024065 195.21596548 -7.60281372 192.86607361 C-4.51425564 188.75602072 -4.991387 184.39865955 -4.89672852 179.38427734 C-4.86034271 178.27006409 -4.82395691 177.15585083 -4.78646851 176.00787354 C-4.67021855 172.32040769 -4.58089517 168.63277356 -4.4909668 164.94458008 C-4.41373798 162.38388737 -4.33453864 159.82325339 -4.25344849 157.26268005 C-4.06532039 151.20586673 -3.89306541 145.14882442 -3.72975647 139.09130853 C-3.41986977 127.60523768 -3.08128491 116.12008337 -2.72900772 104.63523674 C-2.6172054 100.86138873 -2.51801947 97.08735705 -2.4201355 93.31312561 C-2.35284588 91.00089343 -2.28516864 88.68867249 -2.21704102 86.37646484 C-2.18114868 84.79985329 -2.18114868 84.79985329 -2.14453125 83.19139099 C-2.11390594 82.22267059 -2.08328064 81.2539502 -2.05172729 80.25587463 C-2.02926878 79.41762933 -2.00681026 78.57938402 -1.98367119 77.71573734 C-1.64654264 74.99498418 -0.79898756 72.81087345 0.3137207 70.31567383 C2.6237207 70.31567383 4.9337207 70.31567383 7.3137207 70.31567383 C9.38703414 76.33334045 9.66993589 81.89754785 9.78100586 88.23291016 C9.80746185 89.31026932 9.83391785 90.38762848 9.86117554 91.49763489 C9.91812283 93.82903148 9.97141405 96.16051965 10.02144241 98.49207497 C10.10368344 102.18816352 10.20206057 105.88347963 10.30575562 109.57902527 C10.60039677 120.08355126 10.88820049 130.58791019 11.11108398 141.09423828 C11.24877592 147.5290541 11.42409884 153.96191039 11.62385178 160.39508629 C11.6927075 162.83983081 11.74767818 165.28500892 11.78822708 167.73038673 C11.41218436 182.57066304 11.41218436 182.57066304 17.30737305 195.56835938 C18.0159848 196.20863571 18.72459656 196.84891205 19.4546814 197.5085907 C22.27225562 200.24741975 22.82702968 203.19366722 23.33325195 206.99926758 C23.29127673 211.97752852 21.08524448 215.35126911 18.0637207 219.12817383 C15.49612696 223.80486244 16.09962986 227.23077573 17.3137207 232.31567383 C20.15797062 241.74788722 24.36143171 248.73534962 32.91137695 253.87817383 C39.7613739 257.42927681 46.18492544 259.9381263 53.91918945 257.49145508 C59.03981814 255.58350778 59.03981814 255.58350778 63.3137207 252.31567383 C65.8137207 252.06567383 65.8137207 252.06567383 68.3137207 252.31567383 C70.3137207 254.31567383 70.3137207 254.31567383 70.7512207 257.56567383 C70.10189381 263.13133295 67.48148259 265.50183225 63.3996582 268.91723633 C56.62584695 273.91754063 48.8711145 276.38918018 40.4387207 276.25317383 C36.31991082 277.65356919 35.90826222 279.2613 33.9387207 283.06567383 C31.40191314 288.57339505 30.19359182 293.34675624 30.1750555 299.39965916 C30.16958108 300.40964403 30.16410666 301.41962891 30.15846634 302.46021938 C30.15748821 303.56595334 30.15651009 304.6716873 30.15550232 305.81092834 C30.15056417 306.99561958 30.14562601 308.18031082 30.14053822 309.40090179 C30.12780007 312.70694419 30.11952037 316.01294406 30.1131113 319.31900127 C30.10506066 322.92369792 30.09134531 326.52837387 30.07840824 330.13305569 C30.0535404 337.32936925 30.03420433 344.52568831 30.01666257 351.72202307 C30.00181919 357.76463425 29.98487202 363.8072365 29.96659851 369.84983826 C29.96395251 370.72621481 29.96130652 371.60259137 29.95858034 372.50552479 C29.95317308 374.29578262 29.94776506 376.08604044 29.94235627 377.87629826 C29.88725865 396.23021088 29.84029801 414.58413974 29.79606855 432.93808138 C29.76402184 446.23268461 29.73021904 459.52728202 29.6951628 472.82187764 C29.44447247 568.10663265 29.29571079 663.39140309 29.3137207 1179.31567383 C29.75651367 1178.67915894 30.19930664 1178.04264404 30.65551758 1177.38684082 C41.03247092 1162.4699704 41.03247092 1162.4699704 43.16915894 1159.39848328 C44.60936721 1157.3281826 46.04957306 1155.25788025 47.48977661 1153.18757629 C48.18465179 1152.18868881 48.87952698 1151.18980133 49.59545898 1150.16064453 C50.21494415 1149.27012894 50.83442932 1148.37961334 51.47268677 1147.46211243 C53.41703377 1144.66716397 55.36146606 1141.87227485 57.3059082 1139.07739258 C59.99941851 1135.20555375 62.69203557 1131.33309577 65.3840332 1127.46020508 C72.24810976 1117.58649496 79.12392098 1107.72131814 86.02514648 1097.87353516 C90.46839903 1091.53043079 94.89352766 1085.17486387 99.3137207 1078.81567383 C109.08750059 1064.75675668 118.89684806 1050.72346052 128.7800293 1036.74121094 C133.78878836 1029.65139434 138.76539507 1022.53920224 143.73950195 1015.42504883 C146.10833516 1012.03711912 148.48083871 1008.65181083 150.85668945 1005.26879883 C157.19929361 996.23265175 163.484485 987.1616669 169.70068359 978.03808594 C173.2347922 972.86196446 176.84077843 967.74559007 180.50610352 962.66186523 C184.02191258 957.76716886 187.42202929 952.79694386 190.8137207 947.81567383 C195.021793 941.6357177 199.28657608 935.50699642 203.65454102 929.43920898 C207.15281243 924.56892847 210.55034477 919.63338284 213.9362793 914.68457031 C217.6070556 909.32600033 221.32937973 904.00508831 225.0637207 898.69067383 C230.03919179 891.60493559 234.94831026 884.47739672 239.8137207 877.31567383 C246.32081822 867.74023666 252.93010852 858.24086017 259.58862305 848.77026367 C262.46007415 844.6845618 265.3246578 840.59405685 268.1887207 836.50317383 C268.76259521 835.68357178 269.33646973 834.86396973 269.92773438 834.01953125 C276.39859787 824.77300553 282.84008148 815.50606759 289.28149414 806.23901367 C293.2875066 800.47640036 297.29602215 794.71552781 301.30444336 788.95458984 C304.68952587 784.08920735 308.07321439 779.22286565 311.4543457 774.35473633 C317.84683289 765.15342901 324.25120595 755.96193084 330.7277832 746.81958008 C335.70975192 739.77749997 340.62466977 732.68888535 345.5324707 725.5949707 C364.85709889 697.72744286 388.74841779 675.03743388 422.67700195 666.73754883 C434.54614586 664.8384858 447.49593786 665.79240381 457.8762207 672.31567383 C463.84649782 677.21436274 463.84649782 677.21436274 465.1887207 680.37817383 C465.3137207 682.31567383 465.3137207 682.31567383 463.3137207 685.31567383 C459.20541308 685.762229 456.89658792 685.1613933 453.3137207 683.31567383 C444.04971621 680.95039609 433.96647514 683.20767584 425.7199707 687.77270508 C413.10418646 695.86237192 405.06822397 705.05216402 400.3137207 719.31567383 C400.22059059 721.20859465 400.18775556 723.10468728 400.18722087 724.9998976 C400.18446113 726.19406973 400.18170138 727.38824186 400.17885801 728.61860102 C400.1808461 729.95309919 400.18292557 731.28759721 400.18508625 732.62209511 C400.1837406 734.03837368 400.18195728 735.45465189 400.17977402 736.87092942 C400.17502237 740.78936095 400.17655264 744.70776938 400.17905179 748.62620208 C400.18067859 752.87919118 400.17654928 757.1321752 400.17314261 761.38516271 C400.16797698 768.84802941 400.16657342 776.31088962 400.16759872 783.77375793 C400.16911969 794.8713455 400.16497068 805.96892585 400.1597241 817.06651201 C400.15003684 838.0381943 400.14723934 859.00987414 400.14666704 879.9815584 C400.14620803 896.17468087 400.14415248 912.36780237 400.14096642 928.56092453 C400.14006891 933.21703605 400.1391791 937.87314757 400.13829154 942.52925909 C400.13807049 943.68669063 400.13784944 944.84412217 400.13762169 946.03662739 C400.13146457 978.60823279 400.12752142 1011.17983786 400.12796497 1043.75144386 C400.12798055 1044.98029286 400.12799613 1046.20914187 400.12801218 1047.47522871 C400.12809529 1053.70396048 400.12819433 1059.93269224 400.12829689 1066.161424 C400.12831683 1067.39853612 400.12833678 1068.63564825 400.12835733 1069.91024862 C400.12839777 1072.4119935 400.12843956 1074.91373837 400.12848272 1077.41548325 C400.12909549 1116.33941119 400.12158982 1155.26333041 400.10791016 1194.18725586 C400.09255766 1237.88935005 400.08394345 1281.59143853 400.08487338 1325.29353559 C400.08494801 1329.95153324 400.08499672 1334.60953089 400.08502769 1339.26752853 C400.08503935 1340.41449712 400.085051 1341.56146572 400.08506301 1342.74319093 C400.08509382 1361.22168535 400.07870083 1379.70017223 400.07009543 1398.17866441 C400.06162845 1416.74365559 400.06062148 1435.3086357 400.06720475 1453.87362774 C400.07090694 1464.90959076 400.06904815 1475.94552022 400.05926241 1486.9814797 C400.05328023 1494.34912393 400.05453819 1501.71674375 400.06173291 1509.08438685 C400.06562939 1513.28503339 400.06634716 1517.48561479 400.05827556 1521.68625684 C400.0509955 1525.50835824 400.05293464 1529.33034027 400.06219942 1533.15243637 C400.06473045 1535.17333795 400.05745784 1537.19424456 400.04977664 1539.21513313 C400.08906365 1549.214599 401.33856016 1557.30162508 405.9387207 1566.19067383 C406.28628418 1566.87613281 406.63384766 1567.5615918 406.99194336 1568.26782227 C409.76576903 1573.59127575 412.95594402 1578.34274916 416.6496582 1583.08129883 C418.3137207 1585.31567383 418.3137207 1585.31567383 419.2902832 1587.48754883 C420.60737467 1589.84021603 421.90168783 1590.18008171 424.3137207 1591.31567383 C425.75643125 1592.66332205 427.17017031 1594.04225088 428.5637207 1595.44067383 C440.42101867 1606.23742168 457.14759664 1612.63209536 473.1887207 1612.44067383 C474.60797852 1612.35172852 474.60797852 1612.35172852 476.0559082 1612.26098633 C478.3137207 1612.31567383 478.3137207 1612.31567383 480.3137207 1614.31567383 C480.6887207 1616.75317383 480.6887207 1616.75317383 480.3137207 1619.31567383 C473.87798383 1625.04592724 465.16333941 1625.8934686 456.86450195 1625.65942383 C435.6492913 1623.60558605 418.45764798 1612.47407069 402.4934082 1598.95629883 C386.34124192 1585.42367611 364.70422618 1570.11501917 342.6887207 1570.19067383 C341.93333008 1570.1880957 341.17793945 1570.18551758 340.3996582 1570.18286133 C338.11822302 1570.23900209 338.11822302 1570.23900209 335.3137207 1571.31567383 C333.92795148 1572.93900349 332.58730802 1574.60291847 331.3137207 1576.31567383 C328.9387207 1576.00317383 328.9387207 1576.00317383 326.3137207 1575.31567383 C324.3137207 1572.31567383 324.3137207 1572.31567383 324.3137207 1569.62817383 C326.29148495 1563.07682975 330.06430173 1558.72919171 336.0012207 1555.37817383 C340.09159842 1553.29412991 343.38887031 1552.18632817 348.0012207 1552.25317383 C348.80946289 1552.26219727 349.61770508 1552.2712207 350.45043945 1552.28051758 C351.06532227 1552.29211914 351.68020508 1552.3037207 352.3137207 1552.31567383 C352.30986848 1551.49943544 352.30601627 1550.68319706 352.30204731 1549.84222418 C352.06231398 1499.04177563 351.82335286 1448.24132347 351.58521271 1397.44086742 C351.56795562 1393.75967305 351.55069834 1390.07847867 351.5334408 1386.39728429 C351.52185499 1383.92591424 351.51026953 1381.45454418 351.49868444 1378.98317412 C351.41732338 1361.62800135 351.33575627 1344.27282956 351.25404745 1326.91765842 C351.10916862 1296.14278144 350.96488508 1265.36790171 350.8215332 1234.59301758 C350.81303772 1232.76943073 350.81303772 1232.76943073 350.80437061 1230.90900373 C350.52348411 1170.59847673 350.25018786 1110.28794437 350.01875379 1049.97720532 C349.99924404 1044.89354333 349.97956942 1039.80988201 349.95978355 1034.72622108 C349.77445659 987.09670753 349.77445659 987.09670753 349.7024231 965.59255981 C349.6583083 952.42993845 349.6117541 939.26732934 349.55981445 926.10473633 C349.55591398 925.11307771 349.55201352 924.1214191 349.54799485 923.09971023 C349.40952401 888.49970074 349.01204944 853.90904728 348.3137207 819.31567383 C347.7657206 820.1206002 347.7657206 820.1206002 347.20664978 820.94178772 C345.52358523 823.41235506 343.83858755 825.88159817 342.15356445 828.35083008 C341.57908569 829.1947229 341.00460693 830.03861572 340.41271973 830.90808105 C336.98762062 835.92388105 333.4977553 840.87735565 329.8762207 845.75317383 C323.76060018 854.00835171 317.90046238 862.43617804 312.02612305 870.86401367 C307.96772527 876.67445428 303.86874342 882.45636206 299.77709961 888.2434082 C298.3011523 890.33347173 296.82847748 892.42580472 295.35668945 894.51879883 C289.63488836 902.65096495 283.859946 910.74174174 278.02880859 918.79589844 C274.37029863 923.84917078 270.7331827 928.91689406 267.11523438 933.99926758 C264.84641035 937.18243451 262.56282184 940.35407633 260.26293945 943.51489258 C254.64071348 951.24768636 249.11263588 959.02429083 243.7512207 966.94067383 C239.19503088 973.66497685 234.46368902 980.21356393 229.55175781 986.68164062 C225.36799057 992.20149403 221.42737255 997.85537962 217.51489258 1003.5715332 C215.22286265 1006.8996352 212.89346776 1010.2014131 210.5637207 1013.50317383 C210.06042236 1014.21650879 209.55712402 1014.92984375 209.03857422 1015.66479492 C205.313967 1020.93031529 201.53922852 1026.15815535 197.7512207 1031.37817383 C193.2276094 1037.61318687 188.81465721 1043.91104695 184.47753906 1050.27685547 C181.00715637 1055.35232934 177.42887507 1060.34251577 173.8137207 1065.31567383 C169.2485378 1071.59774644 164.78454937 1077.93629784 160.40527344 1084.34912109 C155.6236759 1091.34546256 150.72871818 1098.26006344 145.82983398 1105.17456055 C143.32028152 1108.71864672 140.8172867 1112.26735755 138.3137207 1115.81567383 C135.33851327 1120.0314766 132.36272274 1124.24686166 129.3840332 1128.46020508 C119.57847667 1142.3334692 109.83116676 1156.24699856 100.14038086 1170.20068359 C94.43057269 1178.42170648 88.69666454 1186.62025703 82.85668945 1194.74926758 C79.69866416 1199.1603363 76.60470635 1203.61616405 73.5012207 1208.06567383 C68.47513632 1215.26764354 63.37530723 1222.41019504 58.21557617 1229.5168457 C53.57370854 1235.92389092 49.02778612 1242.39554962 44.5090332 1248.88989258 C43.97665039 1249.65430664 43.44426758 1250.4187207 42.89575195 1251.20629883 C42.37759181 1251.97165894 41.85943166 1252.73701904 41.32556969 1253.52557188 C39.3137207 1256.31567383 39.3137207 1256.31567383 36.8198728 1259.18171829 C28.44668039 1269.0631512 27.89284942 1277.49542107 28.07752991 1290.09645081 C28.06957588 1292.07506954 28.05724439 1294.05367463 28.04094785 1296.03224224 C28.00904854 1301.4375384 28.0390834 1306.84094602 28.07976925 1312.246117 C28.11278977 1318.08740486 28.08788275 1323.92849082 28.07035828 1329.76980591 C28.04520006 1341.19999483 28.07328985 1352.62945818 28.11960978 1364.05955691 C28.16899746 1376.70295258 28.17144892 1389.34622813 28.16911076 1401.98969548 C28.16458518 1427.14704238 28.21423064 1452.30401217 28.29125908 1477.46122822 C28.35938122 1499.79191538 28.39056491 1522.1223348 28.38720703 1544.453125 C28.38700497 1545.88720834 28.38680318 1547.32129169 28.38660163 1548.75537504 C28.38649988 1549.46437291 28.38639813 1550.17337078 28.38629329 1550.90385344 C28.38578928 1554.47316965 28.38533638 1558.04248587 28.38494205 1561.6118021 C28.38485849 1562.3160384 28.38477492 1563.02027469 28.38468882 1563.74585148 C28.38286128 1582.4289623 28.40557424 1601.11203971 28.43657488 1619.79512256 C28.43767624 1620.46006811 28.43877759 1621.12501365 28.43991233 1621.81010906 C28.44545795 1625.14884544 28.45106617 1628.48758168 28.45675628 1631.82631781 C28.47182059 1641.1042992 28.47715201 1650.38225745 28.4794178 1659.66024971 C28.48283313 1670.96982392 28.505221 1682.27918631 28.55108184 1693.58867068 C28.57412175 1699.35638614 28.58941795 1705.12383127 28.58311081 1710.89159584 C28.57761237 1716.17614886 28.59536688 1721.46010521 28.63135343 1726.74453389 C28.64037599 1728.65144604 28.64111465 1730.55842013 28.63251699 1732.46533424 C28.57484811 1746.85421684 30.12294372 1758.59820441 39.9465332 1769.96020508 C47.4138448 1777.39054978 55.78806899 1784.17630991 66.6887207 1784.37817383 C67.5549707 1784.35754883 68.4212207 1784.33692383 69.3137207 1784.31567383 C70.3037207 1784.97567383 71.2937207 1785.63567383 72.3137207 1786.31567383 C72.71811828 1789.48345486 72.91160285 1791.44874471 71.0637207 1794.12817383 C64.73796367 1798.42065181 54.46567495 1796.97687169 47.36450195 1795.66723633 C37.70996897 1793.58268108 29.07617524 1789.79761896 20.3137207 1785.31567383 C20.03786133 1786.07106445 19.76200195 1786.82645508 19.4777832 1787.60473633 C16.80394302 1793.83173327 11.49954639 1798.2152652 6.4152832 1802.51879883 C5.0499976 1803.6861434 3.70929299 1804.88309576 2.3996582 1806.11254883 C-10.9688796 1818.60361504 -26.92402278 1827.6391687 -42.73754883 1836.62817383 C-45.46309891 1838.18795211 -48.16929159 1839.77566538 -50.86987305 1841.37817383 C-68.33190603 1851.67537967 -86.62237565 1860.32568691 -105.14648438 1868.52954102 C-106.38442623 1869.07872696 -106.38442623 1869.07872696 -107.64737701 1869.63900757 C-109.66008981 1870.53180588 -111.67306081 1871.42401656 -113.6862793 1872.31567383 C-68.69889411 1872.99922122 -23.71368839 1873.41770444 21.27856445 1873.59692383 C23.6596133 1873.60656541 26.04066214 1873.61620897 28.42171097 1873.62585449 C47.86974091 1873.70399831 67.31779887 1873.77444325 86.76586914 1873.84173584 C100.29072879 1873.88859166 113.81557316 1873.93756054 127.3403998 1873.99322271 C134.21724974 1874.02129095 141.09409549 1874.04496631 147.9709729 1874.0651474 C152.20403251 1874.07854668 156.43706875 1874.09594529 160.6701088 1874.11445808 C162.62242228 1874.12218629 164.5747431 1874.12826794 166.52706718 1874.13255119 C169.19528435 1874.13863572 171.86341238 1874.15069854 174.53160095 1874.16418457 C175.29515158 1874.16448056 176.05870221 1874.16477654 176.84539074 1874.1650815 C182.06402429 1874.20007319 187.13397502 1874.67260751 192.3137207 1875.31567383 C192.12964635 1793.54783084 191.9429486 1711.77999353 191.73510742 1630.01220703 C191.73215504 1628.85060104 191.72920267 1627.68899506 191.72616082 1626.49218889 C191.66063742 1600.72718378 191.59421375 1574.96218106 191.52694187 1549.19718046 C191.50288852 1539.98294618 191.47888765 1530.76871176 191.454907 1521.55447729 C191.44900772 1519.28829211 191.44310476 1517.02210693 191.4371981 1514.75592177 C191.35512228 1483.2599459 191.27928778 1451.76396404 191.21107404 1420.26795521 C191.15399495 1393.92573767 191.08786339 1367.58356398 191.00722599 1341.24140739 C190.96336985 1326.84398594 190.92795575 1312.44659667 190.90407652 1298.04912776 C190.88733335 1288.44184059 190.85999659 1278.83462306 190.82364661 1269.22739011 C190.80354598 1263.83948739 190.78795569 1258.45168395 190.7856617 1253.06374168 C190.78354182 1248.23919691 190.76787207 1243.4148971 190.74117935 1238.5904274 C190.73403097 1236.86948939 190.7318246 1235.1485217 190.73524678 1233.42757225 C191.27289325 1217.83793437 191.27289325 1217.83793437 185.44083595 1204.02543926 C182.28432407 1201.48824956 179.06682531 1201.76757483 175.1887207 1201.75317383 C166.86671873 1201.49675855 158.02408811 1200.80597444 151.3137207 1195.31567383 C149.23565682 1192.1293092 148.22417211 1190.32309555 148.5637207 1186.50317383 C149.3137207 1184.31567383 149.3137207 1184.31567383 150.3137207 1183.31567383 C152.40640413 1183.55581783 154.49898464 1183.79688941 156.59106445 1184.04223633 C168.87445569 1185.27586242 178.11466008 1183.85945862 188.0637207 1176.19067383 C210.15452628 1156.86121895 216.47494468 1120.35991984 222.6262207 1093.06567383 C225.83262107 1079.0498813 229.40282299 1065.15233091 233.3137207 1051.31567383 C233.52706055 1050.55158203 233.74040039 1049.78749023 233.96020508 1049.00024414 C240.84513678 1024.60562733 252.5065795 989.83414968 275.7590332 976.19067383 C281.68665369 972.98853171 286.4167174 970.7591919 293.3137207 971.31567383 C295.3137207 972.50317383 295.3137207 972.50317383 296.3137207 974.31567383 C296.1809082 976.78051758 296.1809082 976.78051758 295.3137207 979.31567383 C293.1965332 980.58911133 293.1965332 980.58911133 290.4387207 981.69067383 C274.30968961 989.85992334 267.09905696 1011.37892571 261.6887207 1027.37817383 C251.18219066 1059.50756671 245.91867423 1093.07013061 243.50943565 1126.73128414 C243.30320869 1129.45448353 243.06510471 1132.17398859 242.82821655 1134.89468384 C240.73662132 1160.72350258 240.96184183 1186.61195527 240.91311686 1212.50749873 C240.89889033 1219.88748364 240.87368099 1227.26742299 240.84861421 1234.64737761 C240.79945912 1249.25382162 240.76203181 1263.86027871 240.72969561 1278.46676862 C240.7011954 1291.33888158 240.66839303 1304.21097551 240.6321106 1317.08306885 C240.3439045 1419.89668327 240.25905655 1522.71031329 240.3137207 1875.31567383 C247.75525505 1875.23104447 255.19658318 1875.13607492 262.63781834 1875.02814674 C266.09362895 1874.97834319 269.54941135 1874.93201283 273.00537109 1874.89379883 C276.98462698 1874.84964266 280.96358202 1874.79005792 284.94262695 1874.72973633 C286.17517715 1874.71818512 287.40772736 1874.70663391 288.67762756 1874.69473267 C294.62362962 1874.59294256 299.6907668 1874.25599894 305.3137207 1872.31567383 C309.33905913 1871.89925951 311.43519718 1871.75940932 314.88012695 1873.94067383 C317.75862774 1876.74986882 318.47174616 1878.8661983 319.6262207 1882.69067383 C323.21745507 1892.48197238 329.48187755 1895.0678232 338.4387207 1899.37817383 C349.30364963 1904.39140331 360.26506519 1908.07914349 371.8137207 1911.12817383 C422.06805736 1924.46688636 422.06805736 1924.46688636 434.8137207 1944.37817383 C438.17916883 1950.5275054 440.32060004 1956.29159615 438.3137207 1963.31567383 C436.3137207 1965.31567383 436.3137207 1965.31567383 433.1887207 1965.44067383 C432.2399707 1965.39942383 431.2912207 1965.35817383 430.3137207 1965.31567383 C429.98500977 1964.61442383 429.65629883 1963.91317383 429.31762695 1963.19067383 C421.95357169 1948.50247688 409.6435414 1942.03911053 394.62011719 1936.8972168 C345.97306055 1921.10434568 290.56167052 1926.20988867 240.3137207 1926.31567383 C240.3137207 1961.29567383 240.3137207 1996.27567383 240.3137207 2032.31567383 C242.6237207 2032.64567383 244.9337207 2032.97567383 247.3137207 2033.31567383 C257.59393689 2036.22473162 267.3323043 2039.98466423 273.3137207 2049.31567383 C274.3137207 2051.87817383 274.3137207 2051.87817383 274.3137207 2054.31567383 C272.6887207 2056.69067383 272.6887207 2056.69067383 270.3137207 2058.31567383 C266.29552408 2058.21264315 263.66560233 2056.37837021 260.3137207 2054.31567383 C249.85046049 2051.11144452 236.134433 2052.1773208 226.3293457 2056.63989258 C216.65273486 2062.01718021 208.29747001 2068.65341778 200.3137207 2076.31567383 C199.56606445 2077.01176758 198.8184082 2077.70786133 198.0480957 2078.42504883 C193.16113315 2083.106964 189.02800431 2088.11861214 184.97607422 2093.51342773 C181.92945148 2097.56256404 178.70395964 2101.34902758 175.2902832 2105.08911133 C173.13914894 2107.51232581 171.13866581 2110.026334 169.1262207 2112.56567383 C165.54891576 2116.97231936 161.75986327 2121.05645156 157.7512207 2125.06567383 C157.23342041 2125.58419922 156.71562012 2126.10272461 156.18212891 2126.63696289 C143.06901921 2139.56740445 128.31265606 2151.19263146 112.3137207 2160.31567383 C111.07236215 2161.04794527 109.83149865 2161.78105641 108.59106445 2162.51489258 C80.78346729 2178.77670609 48.2688587 2190.35443422 15.79418945 2190.51879883 C14.8961409 2190.5244989 13.99809235 2190.53019897 13.0728302 2190.53607178 C11.17600665 2190.54547434 9.27916712 2190.55203677 7.38232422 2190.5559082 C4.54729772 2190.56551765 1.71302777 2190.59654642 -1.12182617 2190.62817383 C-13.25595365 2190.69888198 -24.78461803 2189.680667 -36.6862793 2187.31567383 C-37.69279541 2187.11683594 -38.69931152 2186.91799805 -39.73632812 2186.71313477 C-42.06939125 2186.21346796 -44.37656685 2185.66329354 -46.6862793 2185.06567383 C-47.91399048 2184.75098145 -47.91399048 2184.75098145 -49.16650391 2184.42993164 C-83.05722974 2175.42532204 -113.56510737 2157.46421844 -139.6862793 2134.31567383 C-140.22639648 2133.8387207 -140.76651367 2133.36176758 -141.32299805 2132.87036133 C-152.87882535 2122.60461451 -163.1729673 2111.49735382 -172.6862793 2099.31567383 C-178.4632422 2092.10486042 -184.38601718 2085.07588716 -190.6862793 2078.31567383 C-191.45584961 2077.48036133 -192.22541992 2076.64504883 -193.01831055 2075.78442383 C-204.70003989 2063.55540829 -219.09292655 2053.2865059 -236.47509766 2052.76708984 C-245.23050739 2052.72108944 -252.17557003 2053.30853432 -259.6862793 2058.31567383 C-262.2487793 2058.25317383 -262.2487793 2058.25317383 -264.6862793 2057.31567383 C-266.2487793 2055.19067383 -266.2487793 2055.19067383 -266.6862793 2052.31567383 C-262.86180405 2043.17018954 -256.01425341 2039.11231103 -247.1394043 2035.39379883 C-242.43749012 2033.92578038 -237.5325827 2033.1968199 -232.6862793 2032.31567383 C-232.6862793 1997.33567383 -232.6862793 1962.35567383 -232.6862793 1926.31567383 C-260.70154274 1926.51271581 -260.70154274 1926.51271581 -288.71630859 1926.76611328 C-294.20739746 1926.78869629 -294.20739746 1926.78869629 -296.80012512 1926.79289246 C-298.56260037 1926.80043396 -300.32505443 1926.81772456 -302.08735657 1926.84355164 C-321.66772308 1927.11547229 -344.61682148 1924.73060193 -359.8112793 1910.94067383 C-365.30844394 1904.67808119 -367.41058381 1898.14297092 -367.07299805 1889.84301758 C-366.50649232 1886.14070239 -365.28545051 1883.98509292 -362.6862793 1881.31567383 C-360.1237793 1880.25317383 -360.1237793 1880.25317383 -357.6862793 1880.31567383 C-356.0300293 1881.47973633 -356.0300293 1881.47973633 -354.6862793 1883.31567383 C-354.51852959 1886.13300867 -354.75338073 1888.81250805 -354.97143555 1891.62426758 C-354.91576396 1894.42135315 -354.91576396 1894.42135315 -352.97143555 1896.50317383 C-336.95760519 1909.20474183 -311.34622543 1907.64745166 -292.24072266 1905.49072266 C-273.82306102 1903.16165619 -255.78781306 1899.38783535 -238.1940918 1893.45239258 C-234.6862793 1892.31567383 -234.6862793 1892.31567383 -232.6862793 1892.31567383 C-232.67334359 1869.12947272 -232.66231332 1845.94327088 -232.65236589 1822.75706831 C-232.65112125 1819.86228118 -232.64986066 1816.96749406 -232.64859986 1814.07270694 C-232.62730908 1764.80963668 -232.61953142 1715.54659494 -232.64083186 1666.28352341 C-232.64284772 1661.58639657 -232.64477321 1656.88926969 -232.64669988 1652.19214281 C-232.65866903 1622.99884759 -232.65866903 1622.99884759 -232.67219204 1593.80555307 C-232.70356632 1529.61901854 -232.68037547 1465.43301018 -232.57683909 1401.24657047 C-232.56255588 1392.38701161 -232.54852637 1383.52745239 -232.53492737 1374.66789246 C-232.53380184 1373.93513095 -232.53267632 1373.20236944 -232.53151669 1372.44740304 C-232.49665782 1349.62646191 -232.47560676 1326.80553945 -232.46739197 1303.98457336 C-232.46712649 1303.26174743 -232.46686102 1302.53892149 -232.46658749 1301.79419174 C-232.46105082 1286.54306408 -232.45781582 1271.29193696 -232.45742973 1256.04080831 C-232.45723079 1248.84038703 -232.45645093 1241.63996587 -232.45535278 1234.43954468 C-232.45525431 1233.72908612 -232.45515583 1233.01862756 -232.45505437 1232.28663996 C-232.45160055 1209.34946331 -232.40965856 1186.4125503 -232.34771532 1163.47546304 C-232.28333683 1139.57545509 -232.2615758 1115.67581765 -232.28808409 1091.77572459 C-232.30210521 1077.89064414 -232.28208935 1064.00655678 -232.21439501 1050.12162944 C-232.17222553 1040.79532202 -232.1737879 1031.4696755 -232.21043883 1022.14334676 C-232.23010796 1016.81654669 -232.23086667 1011.4916147 -232.17843711 1006.16499484 C-232.13096984 1001.30374014 -232.13961184 996.44581231 -232.19142451 991.58463151 C-232.20041811 989.84258523 -232.18961444 988.1002848 -232.15572635 986.35854494 C-231.9127617 973.00157565 -235.8293167 965.26259882 -244.29434136 955.01456788 C-246.06355686 952.8551974 -247.67848217 950.60116774 -249.2800293 948.31567383 C-250.24802423 946.98179222 -251.21675275 945.64844261 -252.1862793 944.31567383 C-256.89786707 937.81595335 -261.54926695 931.27701857 -266.16674805 924.71020508 C-269.80082602 919.55000513 -273.48309202 914.42645716 -277.1862793 909.31567383 C-282.92246937 901.39654238 -288.57763336 893.42310539 -294.20239258 885.42456055 C-296.69276711 881.88526223 -299.18984514 878.35069927 -301.6862793 874.81567383 C-304.71108394 870.53148014 -307.73517091 866.24678602 -310.7565918 861.96020508 C-311.77475283 860.51614662 -312.79298162 859.07213593 -313.8112793 857.62817383 C-314.31071045 856.91991455 -314.8101416 856.21165527 -315.32470703 855.48193359 C-318.44703368 851.05850965 -321.5918099 846.65190969 -324.7487793 842.25317383 C-329.37281234 835.8064948 -333.8719871 829.27630514 -338.35142517 822.72859192 C-338.78906661 822.08889874 -339.22670805 821.44920557 -339.67761135 820.79012775 C-340.01047177 820.30355796 -340.3433322 819.81698816 -340.6862793 819.31567383 C-341.57521328 845.54031478 -341.8737551 871.74645405 -341.95677185 897.98488045 C-341.97541528 903.56698472 -341.99915435 909.14906794 -342.0222168 914.7311554 C-342.06152625 924.40633121 -342.09775299 934.08151447 -342.13183594 943.75671005 C-342.18193047 957.96891064 -342.23716741 972.18108803 -342.29351711 986.39326502 C-342.38604747 1009.75996744 -342.47491556 1033.12668223 -342.5612793 1056.4934082 C-342.64320009 1078.6538955 -342.72618684 1100.81437815 -342.8112793 1122.97485352 C-342.81514562 1123.9818579 -342.81514562 1123.9818579 -342.81909005 1125.00920581 C-342.85803489 1135.15042478 -342.89712413 1145.29164318 -342.9362793 1155.43286133 C-342.9401527 1156.43611667 -342.9401527 1156.43611667 -342.94410434 1157.4596398 C-342.99358923 1170.27581304 -343.04312924 1183.09198607 -343.09281254 1195.90815854 C-343.1032276 1198.5951368 -343.11364142 1201.28211506 -343.12405396 1203.96909332 C-343.12662886 1204.6335367 -343.12920377 1205.29798009 -343.1318567 1205.98255811 C-343.16817235 1215.35601806 -343.20423677 1224.72947894 -343.24010628 1234.10294059 C-343.64602034 1340.17423752 -344.1425554 1446.24500003 -344.6862793 1552.31567383 C-344.06718185 1552.3075618 -343.44808441 1552.29944977 -342.81022644 1552.29109192 C-341.99870621 1552.28478256 -341.18718597 1552.27847321 -340.35107422 1552.27197266 C-339.54635178 1552.26386063 -338.74162933 1552.2557486 -337.91252136 1552.24739075 C-331.26581965 1552.45125774 -325.18732445 1556.70995321 -320.6862793 1561.31567383 C-318.31407305 1564.85241768 -316.71721744 1567.89251933 -316.6237793 1572.19067383 C-317.6862793 1574.31567383 -317.6862793 1574.31567383 -320.2487793 1575.62817383 C-321.0531543 1575.85504883 -321.8575293 1576.08192383 -322.6862793 1576.31567383 C-324.39377909 1575.03504898 -326.06001526 1573.69799826 -327.6862793 1572.31567383 C-327.6862793 1571.65567383 -327.6862793 1570.99567383 -327.6862793 1570.31567383 C-355.18271013 1567.93159023 -380.33934557 1586.77254963 -400.2722168 1603.48364258 C-416.88995789 1617.31335734 -436.60518155 1627.09945896 -458.6862793 1625.31567383 C-463.99164698 1624.27596419 -468.58638841 1622.96613596 -472.6862793 1619.31567383 C-473.0612793 1616.75317383 -473.0612793 1616.75317383 -472.6862793 1614.31567383 C-470.6862793 1612.31567383 -470.6862793 1612.31567383 -468.17456055 1612.26098633 C-467.12655273 1612.3202832 -466.07854492 1612.37958008 -464.9987793 1612.44067383 C-447.34047609 1612.654596 -431.75642916 1604.65560707 -418.6862793 1593.31567383 C-417.86901367 1592.69563477 -417.05174805 1592.0755957 -416.2097168 1591.43676758 C-404.70365595 1581.76526442 -394.77962442 1564.15402764 -392.6862793 1549.31567383 C-392.59873236 1547.29931952 -392.55821006 1545.28055969 -392.55632746 1543.26230657 C-392.55279904 1542.06216124 -392.54927062 1540.8620159 -392.54563528 1539.62550253 C-392.54683306 1538.31308806 -392.54803084 1537.0006736 -392.54926491 1535.648489 C-392.54700754 1534.22962153 -392.54431574 1532.8107547 -392.54122907 1531.3918888 C-392.53399866 1527.48023842 -392.53299979 1523.56860724 -392.5330063 1519.65695108 C-392.53193653 1515.40604816 -392.52514541 1511.15515374 -392.51909959 1506.90425551 C-392.5080264 1498.46743522 -392.50237597 1490.03061909 -392.49839072 1481.59379281 C-392.49338115 1471.49051325 -392.48265366 1461.38724176 -392.47190898 1451.28396696 C-392.44628097 1426.86412315 -392.43124444 1402.44427621 -392.41839851 1378.02442281 C-392.41414402 1369.93743461 -392.40957831 1361.85044664 -392.4048152 1353.76345873 C-392.37955751 1310.77195659 -392.35750761 1267.78045408 -392.34508705 1224.78894615 C-392.34216569 1214.82861708 -392.33919817 1204.86828803 -392.33618164 1194.90795898 C-392.33581073 1193.67050598 -392.33543982 1192.43305297 -392.33505767 1191.15810138 C-392.32289874 1151.02555373 -392.29194842 1110.8930499 -392.25026012 1070.76052284 C-392.20748723 1029.50872788 -392.18084801 988.25695607 -392.17561234 947.00513833 C-392.17487188 941.18063729 -392.17396119 935.35613629 -392.17295456 929.53163528 C-392.17276394 928.38530846 -392.17257333 927.23898164 -392.17237694 926.05791765 C-392.16886153 907.59968534 -392.14855537 889.14150789 -392.12215792 870.68329574 C-392.09603185 852.13540941 -392.08827805 833.58758655 -392.09925921 815.03968446 C-392.10524181 804.01759744 -392.09729381 792.99572549 -392.06942838 781.97367097 C-392.05219155 774.61156064 -392.05311265 767.24959717 -392.06879606 759.88748375 C-392.07721622 755.69240762 -392.07776072 751.49774226 -392.0561846 747.30270402 C-392.03669217 743.48208601 -392.04045644 739.66220587 -392.06233809 735.84160724 C-392.06799135 733.82886886 -392.04922786 731.81610639 -392.02930981 729.80345863 C-392.15758144 716.24080609 -397.10655191 705.9901478 -406.5612793 696.41723633 C-416.05172904 687.65387749 -426.63479405 682.43784062 -439.6862793 682.31567383 C-443.21065043 682.84344987 -446.4811997 683.71313403 -449.6862793 685.31567383 C-452.6862793 685.56567383 -452.6862793 685.56567383 -455.6862793 685.31567383 C-457.6862793 682.31567383 -457.6862793 682.31567383 -457.6237793 680.44067383 C-454.68710126 673.78420362 -448.00987664 671.00197719 -441.6862793 668.31567383 C-425.6016702 662.49193605 -408.53389635 667.43133743 -393.6862793 674.31567383 C-381.61256358 680.33832732 -370.84878702 688.05755628 -360.9753418 697.23754883 C-358.69329491 699.36520812 -358.69329491 699.36520812 -356.11206055 701.30004883 C-353.67375296 703.32608218 -352.06675171 705.22936666 -350.2487793 707.81567383 C-349.56170898 708.78633789 -348.87463867 709.75700195 -348.16674805 710.75708008 C-347.33971174 711.94312923 -346.51291044 713.12934226 -345.6862793 714.31567383 C-344.64112424 715.80424855 -343.59551928 717.29250745 -342.54956055 718.78051758 C-339.5408822 723.06612501 -336.54267114 727.35896828 -333.54614258 731.65307617 C-331.71957791 734.26800323 -329.88923938 736.88023992 -328.05737305 739.49145508 C-322.28584769 747.71970378 -316.53929827 755.96298677 -310.8581543 764.25390625 C-306.68832716 770.33112714 -302.4607731 776.3672511 -298.22924805 782.40161133 C-293.69977516 788.86248283 -289.18925476 795.33631115 -284.6862793 801.81567383 C-279.69884449 808.99119852 -274.70121995 816.15934565 -269.6862793 823.31567383 C-264.65587791 830.4965197 -259.63442397 837.68352589 -254.6237793 844.87817383 C-253.72369141 846.16884766 -253.72369141 846.16884766 -252.80541992 847.4855957 C-248.47843783 853.70305141 -244.194429 859.94920035 -239.91894531 866.20214844 C-239.31820442 867.08046074 -238.71746353 867.95877304 -238.09851837 868.86370087 C-236.62762713 871.01425949 -235.15688453 873.16491961 -233.6862793 875.31567383 C-233.6233486 798.45588263 -233.68185078 721.59705756 -233.9050293 644.73754883 C-233.91057301 642.82062102 -233.91611488 640.9036932 -233.92165494 638.98676538 C-233.98120758 618.40601362 -234.04258332 597.82526747 -234.10475782 577.24452348 C-234.23183881 535.16669875 -234.35049976 493.08885082 -234.46362305 451.01098633 C-234.46633338 450.00491937 -234.46904371 448.99885241 -234.47183618 447.96229857 C-234.66302046 376.95500675 -234.77818931 305.94825105 -234.7487793 234.94067383 C-234.74814295 233.35988446 -234.74814295 233.35988446 -234.74749374 231.74715996 C-234.73730021 206.93665349 -234.71912437 182.12616114 -234.6862793 157.31567383 C-236.66788737 157.08717346 -238.64949544 156.8586731 -240.63110352 156.63017273 C-250.13897891 155.17520406 -259.17401314 149.61819987 -265.1862793 142.25317383 C-266.73146767 139.22717993 -267.24161329 137.64767781 -266.6862793 134.31567383 C-264.6862793 132.31567383 -264.6862793 132.31567383 -261.9987793 131.94067383 C-257.66813687 132.43093523 -255.40040502 134.04593033 -251.6862793 136.31567383 C-241.21483748 140.01841339 -228.24226016 137.35481571 -218.5769043 132.87426758 C-208.59841212 127.82646226 -200.51659757 121.23203956 -192.6862793 113.31567383 C-191.89608398 112.5602832 -191.10588867 111.80489258 -190.29174805 111.02661133 C-185.07797104 105.98971528 -180.65464636 100.85273349 -176.57299805 94.85864258 C-174.49798267 92.06188272 -172.16394841 89.75871713 -169.6862793 87.31567383 C-168.35216526 85.70837143 -167.04021724 84.08246227 -165.7487793 82.44067383 C-157.58109209 72.36081904 -148.78824479 62.49017742 -138.6862793 54.31567383 C-137.51501537 53.33342431 -136.34452403 52.35025321 -135.17456055 51.36645508 C-108.97984126 29.51061954 -78.23391525 12.56601936 -44.9362793 4.50317383 C-44.13416016 4.30828369 -43.33204102 4.11339355 -42.50561523 3.91259766 C-28.33999771 0.68161795 -14.46775191 -0.0318647 0 0 Z M-183.6862793 1040.31567383 C-183.8596508 1103.05176249 -184.02251952 1165.78787669 -184.17723495 1228.52401412 C-184.18624711 1232.17762386 -184.19527596 1235.83123356 -184.20430517 1239.48484325 C-184.50950044 1363.11632801 -184.74024731 1486.74748011 -184.74943781 1699.09984076 C-184.74877683 1702.45316577 -184.74813429 1705.80649078 -184.74749374 1709.15981579 C-184.73672913 1764.87843948 -184.71712916 1820.59705762 -184.6862793 1876.31567383 C-178.98439044 1875.55223455 -178.98439044 1875.55223455 -173.47924805 1873.96801758 C-172.3490625 1873.55326172 -172.3490625 1873.55326172 -171.19604492 1873.13012695 C-170.42969727 1872.84073242 -169.66334961 1872.55133789 -168.8737793 1872.25317383 C-167.78806641 1871.8596875 -167.78806641 1871.8596875 -166.68041992 1871.45825195 C-150.70648075 1865.51664402 -135.43546399 1857.85264508 -120.22436523 1850.21508789 C-117.16516891 1848.68008131 -114.10173501 1847.15378 -111.0378418 1845.62817383 C-109.05581399 1844.63649976 -107.07403414 1843.64432994 -105.0925293 1842.65161133 C-104.19441528 1842.20457855 -103.29630127 1841.75754578 -102.37097168 1841.29696655 C-96.29854476 1838.23855004 -90.48431166 1834.86263861 -84.6862793 1831.31567383 C-83.03302344 1830.3362495 -81.3782715 1829.35934215 -79.72143555 1828.38598633 C-66.51231236 1820.58077361 -54.42050265 1812.24200812 -42.6862793 1802.31567383 C-41.8406543 1801.60668945 -40.9950293 1800.89770508 -40.1237793 1800.16723633 C-30.85454739 1792.14355746 -20.8744662 1783.03233446 -19.6862793 1770.31567383 C-19.54370689 1766.52249077 -19.54967175 1762.73252614 -19.55688477 1758.93701172 C-19.55519193 1757.77824335 -19.55349909 1756.61947498 -19.55175495 1755.42559242 C-19.54819025 1752.16520034 -19.54925266 1748.90484625 -19.55221915 1745.64445472 C-19.55393183 1742.75331127 -19.55165151 1739.86217584 -19.54941386 1736.97103316 C-19.5363312 1719.76812919 -19.56180531 1702.56525779 -19.5909065 1685.36238194 C-19.59578721 1682.46547271 -19.60052699 1679.56856328 -19.60522175 1676.67165375 C-19.6068222 1675.68556751 -19.60842265 1674.69948128 -19.6100716 1673.68351364 C-19.61336449 1671.64705279 -19.61663935 1669.61059192 -19.61989695 1667.57413101 C-19.62850045 1662.22989259 -19.63763114 1656.8856559 -19.64767647 1651.54141998 C-19.7081139 1618.68345435 -19.66460207 1585.82688459 -19.56284475 1552.9690913 C-19.50029411 1532.72796106 -19.44655443 1512.4869065 -19.42822266 1492.24568176 C-19.42738268 1491.32264749 -19.4265427 1490.39961321 -19.42567727 1489.4486082 C-19.41744475 1480.08377663 -19.41145426 1470.71894553 -19.40811984 1461.35411095 C-19.40638218 1456.65427639 -19.40408197 1451.95444228 -19.40142822 1447.25460815 C-19.40091218 1446.32422366 -19.40039614 1445.39383917 -19.39986446 1444.43526121 C-19.390186 1429.37777891 -19.3354918 1414.32077139 -19.26453442 1399.26346739 C-19.19309814 1383.89251214 -19.17029039 1368.52205307 -19.19389528 1353.15094644 C-19.20666364 1343.85092166 -19.18225741 1334.55265094 -19.10649641 1325.25291809 C-19.05879181 1318.95003988 -19.0591941 1312.64829261 -19.09694372 1306.34535167 C-19.11717895 1302.73722721 -19.11736929 1299.13234129 -19.05923057 1295.52455628 C-18.79991636 1278.4183024 -20.13781534 1267.04452863 -32.00415671 1254.21910024 C-34.89135744 1250.9520529 -37.29078679 1247.34698125 -39.7487793 1243.75317383 C-40.74052758 1242.34049144 -41.73380897 1240.92888295 -42.72924805 1239.51879883 C-43.21828613 1238.82334961 -43.70732422 1238.12790039 -44.21118164 1237.41137695 C-45.67562445 1235.3308114 -47.14322121 1233.25251241 -48.61206055 1231.17504883 C-54.58880208 1222.72147733 -60.53722812 1214.24856721 -66.47045898 1205.7644043 C-72.18418824 1197.59720664 -77.93188674 1189.45424911 -83.6862793 1181.31567383 C-95.12824965 1165.13302098 -106.50151688 1148.90352583 -117.8112793 1132.62817383 C-126.52361111 1120.09633912 -135.28673719 1107.60789501 -144.2487793 1095.25317383 C-148.78839126 1088.99358467 -153.22895771 1082.67696203 -157.58837891 1076.29077148 C-161.4412634 1070.65107244 -165.37135863 1065.06850138 -169.32250977 1059.49731445 C-171.70727618 1056.13150799 -174.0782625 1052.75828593 -176.40893555 1049.35473633 C-176.8270752 1048.74460693 -177.24521484 1048.13447754 -177.67602539 1047.50585938 C-178.80088431 1045.85984181 -179.92146596 1044.21090355 -181.04174805 1042.56176758 C-181.58444336 1041.82055664 -182.12713867 1041.0793457 -182.6862793 1040.31567383 C-183.0162793 1040.31567383 -183.3462793 1040.31567383 -183.6862793 1040.31567383 Z M-102.84769768 1925.76105547 C-111.80895417 1925.82329883 -120.77022763 1925.88292657 -129.73150265 1925.94243145 C-148.04978045 1926.06412262 -166.36803674 1926.18879347 -184.6862793 1926.31567383 C-184.77928685 1939.76412383 -184.85019993 1953.21249629 -184.89352798 1966.66120338 C-184.91433165 1972.9071457 -184.94251682 1979.15286667 -184.98803711 1985.39868164 C-185.03175297 1991.43523689 -185.0554706 1997.47158028 -185.06578827 2003.50828171 C-185.07313362 2005.80218206 -185.08747637 2008.09607188 -185.10919952 2010.38988113 C-185.22120239 2022.71571585 -185.15121792 2033.66632851 -180.6862793 2045.31567383 C-180.31158508 2046.41051842 -180.31158508 2046.41051842 -179.92932129 2047.52748108 C-168.37434899 2080.70719052 -143.4459427 2110.43130667 -115.38647461 2131.06420898 C-113.68991426 2132.31299824 -112.01231955 2133.58454486 -110.3347168 2134.85864258 C-101.302748 2141.61663743 -91.69101673 2147.12907576 -81.6862793 2152.31567383 C-80.98631836 2152.67935059 -80.28635742 2153.04302734 -79.56518555 2153.41772461 C-35.76187589 2175.84725486 14.29321763 2179.25157641 61.05297852 2164.44848633 C92.12755943 2154.07116045 119.15953091 2136.05270617 142.84936523 2113.6965332 C144.24577427 2112.37974603 145.65254664 2111.07397467 147.05981445 2109.76879883 C169.68024977 2088.1004573 191.7545307 2054.67278975 192.94905663 2022.47739029 C193.02907758 2017.11389763 192.976943 2011.75699524 192.8996582 2006.39379883 C192.88843434 2004.06826892 192.8799093 2001.7427246 192.87393188 1999.41717529 C192.85128466 1993.36715863 192.79257514 1987.31803945 192.72570801 1981.26837158 C192.66375888 1975.0668145 192.63680564 1968.86510898 192.60668945 1962.66333008 C192.54280377 1950.54705551 192.44072457 1938.43143999 192.3137207 1926.31567383 C173.09646146 1926.18256648 153.87918564 1926.05212956 134.66188908 1925.9245224 C125.73047624 1925.86515939 116.7990699 1925.80503996 107.86767578 1925.74291992 C37.62390798 1925.25532728 -32.60400063 1925.2724933 -102.84769768 1925.76105547 Z " fill="#FEFEFE" transform="translate(1067.686279296875,317.684326171875)"/>
<path d="M0 0 C4.43267448 2.54239058 7.45264876 5.39820912 9.66015625 10.078125 C11.21120568 16.10998391 11.15081472 20.89813895 7.9609375 26.32421875 C4.52643366 30.95512633 0.39050218 33.95452776 -5.33984375 35.078125 C-11.40281421 35.16551917 -15.59594051 34.04976492 -20.33984375 30.078125 C-24.05330303 26.15836243 -26.28577072 22.41863635 -26.375 16.90625 C-25.9568225 10.8273771 -24.34802761 6.75994929 -19.68359375 2.6015625 C-13.73251956 -1.76418455 -6.93699103 -2.73310498 0 0 Z " fill="#FFFFFF" transform="translate(1079.33984375,214.921875)"/>
<path d="M0 0 C5.29141597 2.5064602 8.53850513 6.22315975 11.25 11.375 C12.95121585 17.32925547 12.17942094 21.81796519 9.27734375 27.13671875 C6.63652236 30.9889261 3.46632123 33.51122626 -1 35 C-8.182488 35.69766205 -13.17911514 35.39536204 -19 31 C-22.75546078 27.14304028 -24.94639774 23.31142869 -25.03515625 17.828125 C-24.57949688 11.20439368 -22.41785002 7.13001073 -17.375 2.6875 C-12.03156386 -1.10915199 -6.37985635 -0.55950019 0 0 Z " fill="#FFFFFF" transform="translate(1078,2579)"/>
<path d="M0 0 C3.79873181 3.26867621 6.32246681 5.81314009 7.0703125 10.93359375 C7.31290617 16.89331146 6.82299516 20.72992428 2.6875 25.3125 C-1.01607527 28.65475085 -3.52624243 30.17509557 -8.5625 30.5625 C-14.30699007 30.179534 -17.91396155 28.61780255 -22.125 24.6875 C-24.92032316 20.93563769 -26.12301399 16.97069775 -26.3125 12.3125 C-25.5968649 7.77472291 -23.87593211 4.48398648 -20.4375 1.4375 C-13.48233728 -3.29201065 -7.60981254 -3.87669695 0 0 Z " fill="#FFFFFF" transform="translate(1571.3125,1426.6875)"/>
<path d="M0 0 C3.99059281 3.32549401 6.30656041 6.15449337 6.86328125 11.45703125 C7.0329021 17.26877736 6.62469908 20.64730104 2.625 25.1875 C-1.8976559 29.26892118 -5.16646353 30.51114536 -11.3203125 30.3984375 C-16.04161532 29.91374101 -18.81219901 27.73751006 -22.125 24.5 C-25.29267944 20.32442255 -26.77070991 16.13779288 -26.06640625 10.88671875 C-24.49306805 5.072208 -21.54207837 1.29885902 -16.375 -1.8125 C-10.75299856 -3.73907765 -5.13267251 -2.75643523 0 0 Z " fill="#FFFFFF" transform="translate(590.375,1426.8125)"/>
<path d="M0 0 C1.125 3.75 1.125 3.75 0 6 C-1.98 6 -3.96 6 -6 6 C-6 4.02 -6 2.04 -6 0 C-3.50907189 -1.24546405 -2.58919267 -0.7767578 0 0 Z " fill="#FFFFFF" transform="translate(1169,1018)"/>
<path d="M0 0 C0.99 0 1.98 0 3 0 C3 0.66 3 1.32 3 2 C2.01 1.67 1.02 1.34 0 1 C0 0.67 0 0.34 0 0 Z " fill="#FFFFFF" transform="translate(440,1560)"/>
<path d="M0 0 C1 4 1 4 1 4 Z " fill="#FFFFFF" transform="translate(1305,1140)"/>
<path d="" fill="#FFFFFF" transform="translate(0,0)"/>
</svg>
